<?xml version="1.0" encoding="UTF-8"?>
<svg version="1.1" xmlns="http://www.w3.org/2000/svg" width="117" height="117">
<path d="M0 0 C0.99 0 1.98 0 3 0 C3 0.99 3 1.98 3 3 C3.66 3 4.32 3 5 3 C5 3.66 5 4.32 5 5 C5.99 5 6.98 5 8 5 C8 5.99 8 6.98 8 8 C8.66 8 9.32 8 10 8 C10 8.66 10 9.32 10 10 C8.35 10 6.7 10 5 10 C5 19.9 5 29.8 5 40 C5.99 40 6.98 40 8 40 C8 39.34 8 38.68 8 38 C8.66 38 9.32 38 10 38 C10 37.01 10 36.02 10 35 C10.99 35 11.98 35 13 35 C13 34.34 13 33.68 13 33 C13.66 33 14.32 33 15 33 C15 32.01 15 31.02 15 30 C15.99 30 16.98 30 18 30 C18 29.34 18 28.68 18 28 C18.66 28 19.32 28 20 28 C20 27.01 20 26.02 20 25 C20.99 25 21.98 25 23 25 C24.50930183 21.6136749 24.50930183 21.6136749 25 18 C24.34 18 23.68 18 23 18 C23 17.01 23 16.02 23 15 C27.95 15 32.9 15 38 15 C38 19.95 38 24.9 38 30 C37.01 30 36.02 30 35 30 C35 29.34 35 28.68 35 28 C33.35 28 31.7 28 30 28 C30 28.66 30 29.32 30 30 C29.34 30 28.68 30 28 30 C28 30.99 28 31.98 28 33 C27.01 33 26.02 33 25 33 C24.773125 33.721875 24.54625 34.44375 24.3125 35.1875 C22.72720026 38.58457087 20.84076677 40.5749552 18 43 C17.01 43 16.02 43 15 43 C15 43.66 15 44.32 15 45 C14.34 45 13.68 45 13 45 C13 45.99 13 46.98 13 48 C22.9 48 32.8 48 43 48 C43 46.35 43 44.7 43 43 C43.66 43 44.32 43 45 43 C45 43.66 45 44.32 45 45 C45.99 45 46.98 45 48 45 C48 45.99 48 46.98 48 48 C48.66 48 49.32 48 50 48 C50 48.66 50 49.32 50 50 C50.99 50 51.98 50 53 50 C53 50.99 53 51.98 53 53 C52.01 53 51.02 53 50 53 C50 53.66 50 54.32 50 55 C49.34 55 48.68 55 48 55 C48 55.99 48 56.98 48 58 C47.01 58 46.02 58 45 58 C45 58.66 45 59.32 45 60 C44.34 60 43.68 60 43 60 C43 58.35 43 56.7 43 55 C33.1 55 23.2 55 13 55 C13 55.99 13 56.98 13 58 C13.66 58 14.32 58 15 58 C15 58.66 15 59.32 15 60 C15.99 60 16.98 60 18 60 C18.99 62.475 18.99 62.475 20 65 C20.99 65 21.98 65 23 65 C23 65.99 23 66.98 23 68 C23.66 68 24.32 68 25 68 C25 68.66 25 69.32 25 70 C25.99 70 26.98 70 28 70 C28 70.99 28 71.98 28 73 C28.66 73 29.32 73 30 73 C30 73.66 30 74.32 30 75 C31.65 75 33.3 75 35 75 C35 74.34 35 73.68 35 73 C35.99 73 36.98 73 38 73 C38 77.95 38 82.9 38 88 C33.05 88 28.1 88 23 88 C23 87.01 23 86.02 23 85 C23.66 85 24.32 85 25 85 C25 83.35 25 81.7 25 80 C24.34 80 23.68 80 23 80 C23 79.34 23 78.68 23 78 C22.01 78 21.02 78 20 78 C20 77.01 20 76.02 20 75 C19.34 75 18.68 75 18 75 C18 74.34 18 73.68 18 73 C17.01 73 16.02 73 15 73 C15 72.01 15 71.02 15 70 C14.34 70 13.68 70 13 70 C13 69.34 13 68.68 13 68 C12.01 68 11.02 68 10 68 C10 67.01 10 66.02 10 65 C9.34 65 8.68 65 8 65 C8 64.34 8 63.68 8 63 C7.01 63 6.02 63 5 63 C5 72.9 5 82.8 5 93 C6.65 93 8.3 93 10 93 C10 93.66 10 94.32 10 95 C9.34 95 8.68 95 8 95 C8 95.99 8 96.98 8 98 C7.01 98 6.02 98 5 98 C5 98.66 5 99.32 5 100 C4.34 100 3.68 100 3 100 C3 100.99 3 101.98 3 103 C2.01 103 1.02 103 0 103 C0 102.01 0 101.02 0 100 C-0.66 100 -1.32 100 -2 100 C-2 99.34 -2 98.68 -2 98 C-2.99 98 -3.98 98 -5 98 C-5 97.01 -5 96.02 -5 95 C-5.66 95 -6.32 95 -7 95 C-7 94.34 -7 93.68 -7 93 C-5.35 93 -3.7 93 -2 93 C-2 83.1 -2 73.2 -2 63 C-2.99 63 -3.98 63 -5 63 C-5 63.66 -5 64.32 -5 65 C-5.66 65 -6.32 65 -7 65 C-7 65.99 -7 66.98 -7 68 C-7.99 68 -8.98 68 -10 68 C-10 68.66 -10 69.32 -10 70 C-10.66 70 -11.32 70 -12 70 C-12 70.99 -12 71.98 -12 73 C-12.99 73 -13.98 73 -15 73 C-15 73.66 -15 74.32 -15 75 C-15.66 75 -16.32 75 -17 75 C-17 75.99 -17 76.98 -17 78 C-17.99 78 -18.98 78 -20 78 C-20 78.66 -20 79.32 -20 80 C-20.66 80 -21.32 80 -22 80 C-22 81.65 -22 83.3 -22 85 C-21.34 85 -20.68 85 -20 85 C-20 85.99 -20 86.98 -20 88 C-24.95 88 -29.9 88 -35 88 C-35 83.05 -35 78.1 -35 73 C-34.01 73 -33.02 73 -32 73 C-32 73.66 -32 74.32 -32 75 C-30.35 75 -28.7 75 -27 75 C-27 74.34 -27 73.68 -27 73 C-26.34 73 -25.68 73 -25 73 C-25 72.01 -25 71.02 -25 70 C-24.01 70 -23.02 70 -22 70 C-22 69.34 -22 68.68 -22 68 C-21.34 68 -20.68 68 -20 68 C-20 67.01 -20 66.02 -20 65 C-19.01 65 -18.02 65 -17 65 C-17 64.34 -17 63.68 -17 63 C-16.34 63 -15.68 63 -15 63 C-15 62.01 -15 61.02 -15 60 C-14.01 60 -13.02 60 -12 60 C-12 59.34 -12 58.68 -12 58 C-11.34 58 -10.68 58 -10 58 C-10 57.01 -10 56.02 -10 55 C-19.9 55 -29.8 55 -40 55 C-40 56.65 -40 58.3 -40 60 C-40.66 60 -41.32 60 -42 60 C-42 59.34 -42 58.68 -42 58 C-42.99 58 -43.98 58 -45 58 C-45 57.01 -45 56.02 -45 55 C-45.66 55 -46.32 55 -47 55 C-47 54.34 -47 53.68 -47 53 C-47.99 53 -48.98 53 -50 53 C-50 52.01 -50 51.02 -50 50 C-49.01 50 -48.02 50 -47 50 C-47 49.34 -47 48.68 -47 48 C-46.34 48 -45.68 48 -45 48 C-45 47.01 -45 46.02 -45 45 C-44.01 45 -43.02 45 -42 45 C-42 44.34 -42 43.68 -42 43 C-41.34 43 -40.68 43 -40 43 C-40 44.65 -40 46.3 -40 48 C-30.1 48 -20.2 48 -10 48 C-10 47.01 -10 46.02 -10 45 C-10.66 45 -11.32 45 -12 45 C-12 44.34 -12 43.68 -12 43 C-12.99 43 -13.98 43 -15 43 C-15 42.01 -15 41.02 -15 40 C-15.66 40 -16.32 40 -17 40 C-17 39.34 -17 38.68 -17 38 C-17.99 38 -18.98 38 -20 38 C-20 37.01 -20 36.02 -20 35 C-20.66 35 -21.32 35 -22 35 C-22 34.34 -22 33.68 -22 33 C-22.99 33 -23.98 33 -25 33 C-25 32.01 -25 31.02 -25 30 C-25.66 30 -26.32 30 -27 30 C-27 29.34 -27 28.68 -27 28 C-28.65 28 -30.3 28 -32 28 C-32 28.66 -32 29.32 -32 30 C-32.99 30 -33.98 30 -35 30 C-35 25.05 -35 20.1 -35 15 C-30.05 15 -25.1 15 -20 15 C-20 15.99 -20 16.98 -20 18 C-20.66 18 -21.32 18 -22 18 C-22 19.65 -22 21.3 -22 23 C-21.34 23 -20.68 23 -20 23 C-20 23.66 -20 24.32 -20 25 C-19.01 25 -18.02 25 -17 25 C-17 25.99 -17 26.98 -17 28 C-16.34 28 -15.68 28 -15 28 C-15 28.66 -15 29.32 -15 30 C-14.01 30 -13.02 30 -12 30 C-12 30.99 -12 31.98 -12 33 C-11.34 33 -10.68 33 -10 33 C-10 33.66 -10 34.32 -10 35 C-9.01 35 -8.02 35 -7 35 C-7 35.99 -7 36.98 -7 38 C-6.34 38 -5.68 38 -5 38 C-5 38.66 -5 39.32 -5 40 C-4.01 40 -3.02 40 -2 40 C-2 30.1 -2 20.2 -2 10 C-3.65 10 -5.3 10 -7 10 C-7 9.34 -7 8.68 -7 8 C-6.34 8 -5.68 8 -5 8 C-5 7.01 -5 6.02 -5 5 C-4.01 5 -3.02 5 -2 5 C-2 4.34 -2 3.68 -2 3 C-1.34 3 -0.68 3 0 3 C0 2.01 0 1.02 0 0 Z " fill="#281227" transform="translate(57,7)"/>
<path d="M0 0 C0.99 0 1.98 0 3 0 C3 0.99 3 1.98 3 3 C3.66 3 4.32 3 5 3 C5 3.66 5 4.32 5 5 C5.99 5 6.98 5 8 5 C8 5.99 8 6.98 8 8 C8.66 8 9.32 8 10 8 C10 8.66 10 9.32 10 10 C8.35 10 6.7 10 5 10 C5 19.9 5 29.8 5 40 C5.99 40 6.98 40 8 40 C8 39.34 8 38.68 8 38 C8.66 38 9.32 38 10 38 C10 37.01 10 36.02 10 35 C10.99 35 11.98 35 13 35 C13 34.34 13 33.68 13 33 C13.66 33 14.32 33 15 33 C15 32.01 15 31.02 15 30 C15.99 30 16.98 30 18 30 C18 29.34 18 28.68 18 28 C18.66 28 19.32 28 20 28 C20 27.01 20 26.02 20 25 C20.99 25 21.98 25 23 25 C24.50930183 21.6136749 24.50930183 21.6136749 25 18 C24.34 18 23.68 18 23 18 C23 17.01 23 16.02 23 15 C27.95 15 32.9 15 38 15 C38 19.95 38 24.9 38 30 C37.01 30 36.02 30 35 30 C35 29.34 35 28.68 35 28 C33.35 28 31.7 28 30 28 C30 28.66 30 29.32 30 30 C29.34 30 28.68 30 28 30 C28 30.99 28 31.98 28 33 C27.01 33 26.02 33 25 33 C24.773125 33.721875 24.54625 34.44375 24.3125 35.1875 C22.72720026 38.58457087 20.84076677 40.5749552 18 43 C17.01 43 16.02 43 15 43 C15 43.66 15 44.32 15 45 C14.34 45 13.68 45 13 45 C13 45.99 13 46.98 13 48 C9.68847126 48.36794764 8.39390748 48.29809215 5.6875 46.25 C4 44 4 44 4 40 C2.35 40 0.7 40 -1 40 C-1.0825 40.763125 -1.165 41.52625 -1.25 42.3125 C-2 45 -2 45 -3.8125 46.8125 C-6 48 -6 48 -10 48 C-10 47.01 -10 46.02 -10 45 C-10.66 45 -11.32 45 -12 45 C-12 44.34 -12 43.68 -12 43 C-12.99 43 -13.98 43 -15 43 C-15 42.01 -15 41.02 -15 40 C-15.66 40 -16.32 40 -17 40 C-17 39.34 -17 38.68 -17 38 C-17.99 38 -18.98 38 -20 38 C-20 37.01 -20 36.02 -20 35 C-20.66 35 -21.32 35 -22 35 C-22 34.34 -22 33.68 -22 33 C-22.99 33 -23.98 33 -25 33 C-25 32.01 -25 31.02 -25 30 C-25.66 30 -26.32 30 -27 30 C-27 29.34 -27 28.68 -27 28 C-28.65 28 -30.3 28 -32 28 C-32 28.66 -32 29.32 -32 30 C-32.99 30 -33.98 30 -35 30 C-35 25.05 -35 20.1 -35 15 C-30.05 15 -25.1 15 -20 15 C-20 15.99 -20 16.98 -20 18 C-20.66 18 -21.32 18 -22 18 C-22 19.65 -22 21.3 -22 23 C-21.34 23 -20.68 23 -20 23 C-20 23.66 -20 24.32 -20 25 C-19.01 25 -18.02 25 -17 25 C-17 25.99 -17 26.98 -17 28 C-16.34 28 -15.68 28 -15 28 C-15 28.66 -15 29.32 -15 30 C-14.01 30 -13.02 30 -12 30 C-12 30.99 -12 31.98 -12 33 C-11.34 33 -10.68 33 -10 33 C-10 33.66 -10 34.32 -10 35 C-9.01 35 -8.02 35 -7 35 C-7 35.99 -7 36.98 -7 38 C-6.34 38 -5.68 38 -5 38 C-5 38.66 -5 39.32 -5 40 C-4.01 40 -3.02 40 -2 40 C-2 30.1 -2 20.2 -2 10 C-3.65 10 -5.3 10 -7 10 C-7 9.34 -7 8.68 -7 8 C-6.34 8 -5.68 8 -5 8 C-5 7.01 -5 6.02 -5 5 C-4.01 5 -3.02 5 -2 5 C-2 4.34 -2 3.68 -2 3 C-1.34 3 -0.68 3 0 3 C0 2.01 0 1.02 0 0 Z " fill="#281227" transform="translate(57,7)"/>
<path d="M0 0 C1.65 0 3.3 0 5 0 C5.28875 0.78375 5.5775 1.5675 5.875 2.375 C6.84912254 5.09671632 6.84912254 5.09671632 9 7 C11.64787789 7.24543141 14.19903823 7.37349386 16.8515625 7.4140625 C17.62559418 7.43342865 18.39962585 7.4527948 19.19711304 7.4727478 C21.67296275 7.5325983 24.14885883 7.57895011 26.625 7.625 C28.30210377 7.66317482 29.97918784 7.70222625 31.65625 7.7421875 C35.77067353 7.83830409 39.88518886 7.92231439 44 8 C44 6.35 44 4.7 44 3 C44.66 3 45.32 3 46 3 C46 3.66 46 4.32 46 5 C46.99 5 47.98 5 49 5 C49 5.99 49 6.98 49 8 C49.66 8 50.32 8 51 8 C51 8.66 51 9.32 51 10 C51.99 10 52.98 10 54 10 C54 10.99 54 11.98 54 13 C53.01 13 52.02 13 51 13 C51 13.66 51 14.32 51 15 C50.34 15 49.68 15 49 15 C49 15.99 49 16.98 49 18 C48.01 18 47.02 18 46 18 C46 18.66 46 19.32 46 20 C45.34 20 44.68 20 44 20 C44 18.35 44 16.7 44 15 C32.12 15.33 20.24 15.66 8 16 C7.01 18.31 6.02 20.62 5 23 C3.35 23 1.7 23 0 23 C-0.99 20.69 -1.98 18.38 -3 16 C-14.88 15.67 -26.76 15.34 -39 15 C-39 16.65 -39 18.3 -39 20 C-39.66 20 -40.32 20 -41 20 C-41 19.34 -41 18.68 -41 18 C-41.99 18 -42.98 18 -44 18 C-44 17.01 -44 16.02 -44 15 C-44.66 15 -45.32 15 -46 15 C-46 14.34 -46 13.68 -46 13 C-46.99 13 -47.98 13 -49 13 C-49 12.01 -49 11.02 -49 10 C-48.01 10 -47.02 10 -46 10 C-46 9.34 -46 8.68 -46 8 C-45.34 8 -44.68 8 -44 8 C-44 7.01 -44 6.02 -44 5 C-43.01 5 -42.02 5 -41 5 C-41 4.34 -41 3.68 -41 3 C-40.34 3 -39.68 3 -39 3 C-39 4.65 -39 6.3 -39 8 C-34.2306059 7.93107152 -29.46208424 7.84308144 -24.69335938 7.73754883 C-23.07171314 7.70433165 -21.44995219 7.67628965 -19.828125 7.65356445 C-17.49429523 7.61995845 -15.16151365 7.5676424 -12.828125 7.51171875 C-11.74352997 7.50213387 -11.74352997 7.50213387 -10.63702393 7.49235535 C-6.51707974 7.37249877 -3.92575268 7.01425899 -1 4 C-0.20376178 1.90584196 -0.20376178 1.90584196 0 0 Z " fill="#FAFFE9" transform="translate(56,47)"/>
<path d="M0 0 C4.95 0 9.9 0 15 0 C15 4.95 15 9.9 15 15 C14.01 15 13.02 15 12 15 C12 14.34 12 13.68 12 13 C10.35 13 8.7 13 7 13 C7 13.66 7 14.32 7 15 C6.34 15 5.68 15 5 15 C5 15.99 5 16.98 5 18 C4.01 18 3.02 18 2 18 C1.773125 18.721875 1.54625 19.44375 1.3125 20.1875 C-0.27279974 23.58457087 -2.15923323 25.5749552 -5 28 C-5.99 28 -6.98 28 -8 28 C-8 28.66 -8 29.32 -8 30 C-8.66 30 -9.32 30 -10 30 C-10.33 28.68 -10.66 27.36 -11 26 C-12.32 25.67 -13.64 25.34 -15 25 C-15 24.34 -15 23.68 -15 23 C-14.34 23 -13.68 23 -13 23 C-13 22.01 -13 21.02 -13 20 C-12.01 20 -11.02 20 -10 20 C-10 19.34 -10 18.68 -10 18 C-9.34 18 -8.68 18 -8 18 C-8 17.01 -8 16.02 -8 15 C-7.01 15 -6.02 15 -5 15 C-5 14.34 -5 13.68 -5 13 C-4.34 13 -3.68 13 -3 13 C-3 12.01 -3 11.02 -3 10 C-2.01 10 -1.02 10 0 10 C1.50930183 6.6136749 1.50930183 6.6136749 2 3 C1.34 3 0.68 3 0 3 C0 2.01 0 1.02 0 0 Z " fill="#1B2181" transform="translate(80,22)"/>
<path d="M0 0 C0.66 0 1.32 0 2 0 C2 0.66 2 1.32 2 2 C2.99 2 3.98 2 5 2 C5.66 3.65 6.32 5.3 7 7 C7.99 7 8.98 7 10 7 C10 7.99 10 8.98 10 10 C10.66 10 11.32 10 12 10 C12 10.66 12 11.32 12 12 C12.99 12 13.98 12 15 12 C15 12.99 15 13.98 15 15 C15.66 15 16.32 15 17 15 C17 15.66 17 16.32 17 17 C18.65 17 20.3 17 22 17 C22 16.34 22 15.68 22 15 C22.99 15 23.98 15 25 15 C25 19.95 25 24.9 25 30 C20.05 30 15.1 30 10 30 C10 29.01 10 28.02 10 27 C10.66 27 11.32 27 12 27 C12 25.35 12 23.7 12 22 C11.34 22 10.68 22 10 22 C10 21.34 10 20.68 10 20 C9.01 20 8.02 20 7 20 C7 19.01 7 18.02 7 17 C6.34 17 5.68 17 5 17 C5 16.34 5 15.68 5 15 C4.01 15 3.02 15 2 15 C2 14.01 2 13.02 2 12 C1.34 12 0.68 12 0 12 C0 11.34 0 10.68 0 10 C-0.99 10 -1.98 10 -3 10 C-3 9.01 -3 8.02 -3 7 C-3.66 7 -4.32 7 -5 7 C-5 6.34 -5 5.68 -5 5 C-3.68 4.67 -2.36 4.34 -1 4 C-0.67 2.68 -0.34 1.36 0 0 Z " fill="#4DC2D0" transform="translate(70,65)"/>
<path d="M0 0 C0.66 0 1.32 0 2 0 C2.33 1.32 2.66 2.64 3 4 C4.32 4.33 5.64 4.66 7 5 C7 5.66 7 6.32 7 7 C6.34 7 5.68 7 5 7 C5 7.99 5 8.98 5 10 C4.01 10 3.02 10 2 10 C2 10.66 2 11.32 2 12 C1.34 12 0.68 12 0 12 C0 12.99 0 13.98 0 15 C-0.99 15 -1.98 15 -3 15 C-3 15.66 -3 16.32 -3 17 C-3.66 17 -4.32 17 -5 17 C-5 17.99 -5 18.98 -5 20 C-5.99 20 -6.98 20 -8 20 C-8 20.66 -8 21.32 -8 22 C-8.66 22 -9.32 22 -10 22 C-10 23.65 -10 25.3 -10 27 C-9.34 27 -8.68 27 -8 27 C-8 27.99 -8 28.98 -8 30 C-12.95 30 -17.9 30 -23 30 C-23 25.05 -23 20.1 -23 15 C-22.01 15 -21.02 15 -20 15 C-20 15.66 -20 16.32 -20 17 C-18.35 17 -16.7 17 -15 17 C-15 16.34 -15 15.68 -15 15 C-14.34 15 -13.68 15 -13 15 C-13 14.01 -13 13.02 -13 12 C-12.01 12 -11.02 12 -10 12 C-10 11.34 -10 10.68 -10 10 C-9.34 10 -8.68 10 -8 10 C-8 9.01 -8 8.02 -8 7 C-7.01 7 -6.02 7 -5 7 C-5 6.34 -5 5.68 -5 5 C-4.34 5 -3.68 5 -3 5 C-3 4.01 -3 3.02 -3 2 C-2.01 2 -1.02 2 0 2 C0 1.34 0 0.68 0 0 Z " fill="#E9732E" transform="translate(45,65)"/>
<path d="M0 0 C4.95 0 9.9 0 15 0 C15 0.99 15 1.98 15 3 C14.34 3 13.68 3 13 3 C13 4.65 13 6.3 13 8 C13.66 8 14.32 8 15 8 C15 8.66 15 9.32 15 10 C15.99 10 16.98 10 18 10 C18 10.99 18 11.98 18 13 C18.66 13 19.32 13 20 13 C20 13.66 20 14.32 20 15 C20.99 15 21.98 15 23 15 C23 15.99 23 16.98 23 18 C23.66 18 24.32 18 25 18 C25 18.66 25 19.32 25 20 C25.99 20 26.98 20 28 20 C28 20.99 28 21.98 28 23 C28.66 23 29.32 23 30 23 C30 23.66 30 24.32 30 25 C28.68 25.33 27.36 25.66 26 26 C25.67 27.32 25.34 28.64 25 30 C24.34 30 23.68 30 23 30 C23 29.34 23 28.68 23 28 C22.01 28 21.02 28 20 28 C20 27.01 20 26.02 20 25 C19.34 25 18.68 25 18 25 C18 24.34 18 23.68 18 23 C17.01 23 16.02 23 15 23 C15 22.01 15 21.02 15 20 C14.34 20 13.68 20 13 20 C13 19.34 13 18.68 13 18 C12.01 18 11.02 18 10 18 C10 17.01 10 16.02 10 15 C9.34 15 8.68 15 8 15 C8 14.34 8 13.68 8 13 C6.35 13 4.7 13 3 13 C3 13.66 3 14.32 3 15 C2.01 15 1.02 15 0 15 C0 10.05 0 5.1 0 0 Z " fill="#ECA738" transform="translate(22,22)"/>
<path d="M0 0 C0.66 0 1.32 0 2 0 C2 1.65 2 3.3 2 5 C11.9 5 21.8 5 32 5 C32 7.31 32 9.62 32 12 C22.1 12 12.2 12 2 12 C2 13.65 2 15.3 2 17 C1.34 17 0.68 17 0 17 C0 16.34 0 15.68 0 15 C-0.99 15 -1.98 15 -3 15 C-3 14.01 -3 13.02 -3 12 C-3.66 12 -4.32 12 -5 12 C-5 11.34 -5 10.68 -5 10 C-5.99 10 -6.98 10 -8 10 C-8 9.01 -8 8.02 -8 7 C-7.01 7 -6.02 7 -5 7 C-5 6.34 -5 5.68 -5 5 C-4.34 5 -3.68 5 -3 5 C-3 4.01 -3 3.02 -3 2 C-2.01 2 -1.02 2 0 2 C0 1.34 0 0.68 0 0 Z " fill="#F8F9C9" transform="translate(15,50)"/>
</svg>
